<svg xmlns:rdf="http://www.w3.org/1999/02/22-rdf-syntax-ns#" xmlns="http://www.w3.org/2000/svg" version="1.1" xmlns:cc="http://creativecommons.org/ns#" xmlns:dc="http://purl.org/dc/elements/1.1/" viewBox="0 0 100 100">
	<path d="m59.505 59.505q3.9386-3.9386 3.9386-9.5052t-3.9386-9.5052-9.5052-3.9386-9.5052 3.9386-3.9386 9.5052 3.9386 9.5052 9.5052 3.9386 9.5052-3.9386zm30.826-15.229v11.658q0 .63018-.42012 1.2078-.42012.57766-1.0503.68269l-9.7152 1.4704q-.99778 2.8358-2.0481 4.7788 1.838 2.6257 5.6191 7.247.52515.63018.52515 1.3129 0 .68269-.47263 1.2078-1.4179 1.943-5.199 5.6716-3.7811 3.7285-4.9364 3.7285-.63018 0-1.3654-.47263l-7.247-5.6716q-2.3106 1.2078-4.7788 1.9956-.84024 7.142-1.5229 9.7677-.36760 1.4704-1.8905 1.4704h-11.658q-.73520 0-1.3129-.47263-.52515-.42012-.57766-1.1028l-1.4704-9.6627q-2.5732-.84024-4.7263-1.943l-7.4046 5.6191q-.526.474-1.314.474-.73520 0-1.3129-.57766-6.6168-5.9867-8.6649-8.8225-.36760-.52515-.36760-1.2078 0-.63018.42012-1.2078.78772-1.1028 2.6782-3.466 1.8905-2.4157 2.8358-3.7285-1.4179-2.6257-2.1531-5.199l-9.61-1.418q-.683-.105-1.103-.631-.4203-.577-.4203-1.26v-11.658q0-.63018.42012-1.2078.42012-.57766.99778-.68269l9.7677-1.4704q.73520-2.4157 2.0481-4.8313-2.1006-2.9933-5.6191-7.247-.52515-.63018-.52515-1.2604 0-.52515.47263-1.2078 1.3654-1.8905 5.1464-5.6191 3.8336-3.7811 4.9889-3.7811.68269 0 1.3654.52515l7.247 5.6191q2.3106-1.2078 4.7788-1.9956.84024-7.142 1.5229-9.7677.36760-1.4704 1.8905-1.4704h11.658q.73520 0 1.2604.47263.57766.42012.63018 1.1028l1.4704 9.6627q2.5732.84024 4.7263 1.943l7.4571-5.6191q.47263-.47263 1.2604-.47263.68269 0 1.3129.52515 6.7744 6.2492 8.6649 8.9275.36760.42012.36760 1.1553 0 .63018-.42012 1.2078-.78772 1.1028-2.6782 3.5185-1.8905 2.3632-2.8358 3.676 1.3654 2.6257 2.1531 5.1464l9.6102 1.4704q.68269.10503 1.1028.68269.42012.52515.42012 1.2078z"/>
</svg>
