<svg xmlns:rdf="http://www.w3.org/1999/02/22-rdf-syntax-ns#" xmlns="http://www.w3.org/2000/svg" version="1.1" xmlns:cc="http://creativecommons.org/ns#" xmlns:dc="http://purl.org/dc/elements/1.1/" viewBox="0 0 100 100">
	<path d="m78.665 54.852v23.887q0 1.2939-.94554 2.2394-.94554.94554-2.2394.94554h-19.11v-19.11h-12.74v19.11h-19.11q-1.2939 0-2.2394-.94554-.94554-.94554-.94554-2.2394v-23.887q0-.04977 0-.14930.04977-.09953.04977-.14930l28.615-23.588 28.615 23.589q.04976.09953.04976.29859zm11.098-3.4338-3.0854 3.6826q-.39812.44789-1.0451.54742h-.14930q-.64694 0-1.0451-.34836l-34.439-28.714-34.437 28.714q-.59718.39812-1.1944.34836-.64694-.09953-1.0451-.54742l-3.0854-3.6826q-.39812-.49765-.34835-1.1446.049765-.69671.54742-1.0948l35.78-29.809q1.592-1.294 3.782-1.294 2.1897 0 3.7821 1.2939l12.143 10.152v-9.7042q0-.69671.44788-1.1446.44789-.44789 1.1446-.44789h9.5549q.69671 0 1.1446.44789.44789.44788.44789 1.1446v20.304l10.899 9.0572q.49765.39812.54742 1.0948.04977.64695-.34836 1.1446z"/>
</svg>
