<svg xmlns:rdf="http://www.w3.org/1999/02/22-rdf-syntax-ns#" xmlns="http://www.w3.org/2000/svg" version="1.1" xmlns:cc="http://creativecommons.org/ns#" xmlns:dc="http://purl.org/dc/elements/1.1/" viewBox="0 0 100 100">
	<path d="m29.118 83.321 4.8169-4.8169-12.439-12.439-4.8169 4.8169v5.6639h6.7754v6.7754h5.6639zm27.684-49.122q0-1.1645-1.1645-1.1645-.52933 0-.89986.37053l-28.69 28.69q-.37053.37053-.37053.89986 0 1.1645 1.1645 1.1645.52933 0 .89986-.37053l28.689-28.69q.37053-.37053.37053-.89986zm-2.8584-10.163 22.02 22.02-44.04 44.04h-22.02v-22.02l44.04-44.04zm36.153 5.0816q0 2.8055-1.9585 4.764l-8.7869 8.7869-22.02-22.02 8.7869-8.734q1.9056-2.0115 4.764-2.0115 2.8055 0 4.8169 2.0115l12.439 12.386q1.9585 2.0644 1.9585 4.8169z"/>
</svg>
