<svg xmlns="http://www.w3.org/2000/svg" version="1.1" viewBox="0 0 100 100">
 <path d="m63.281 53.333h16.458q-0.05208-0.15625-0.15625-0.41667-0.05208-0.3125-0.10417-0.41667l-11.042-25.833h-36.875l-11.042 25.833q-0.05208 0.15625-0.15625 0.46875-0.05208 0.26042-0.10417 0.36458h16.458l4.9479 10h16.667l4.9479-10zm26.719 1.5625v25.104q0 1.3542-0.98958 2.3438-0.98958 0.98958-2.3438 0.98958h-73.333q-1.3542 0-2.3438-0.98958-0.98958-0.98958-0.98958-2.3438v-25.104q0-3.2292 1.3021-6.4062l12.395-28.75q0.52083-1.3021 1.875-2.1875 1.4062-0.88542 2.7604-0.88542h43.333q1.3542 0 2.7083 0.88542 1.4062 0.88542 1.9271 2.1875l12.397 28.75q1.3021 3.1771 1.3021 6.4062z"/>
</svg>
