<?xml version="1.0" standalone="no"?>
<!DOCTYPE svg PUBLIC "-//W3C//DTD SVG 20010904//EN"
 "http://www.w3.org/TR/2001/REC-SVG-20010904/DTD/svg10.dtd">
<svg version="1.0" xmlns="http://www.w3.org/2000/svg"
 width="3189.000000pt" height="3189.000000pt" viewBox="0 0 3189.000000 3189.000000"
 preserveAspectRatio="xMidYMid meet">
<metadata>
Created by potrace 1.11, written by Peter Selinger 2001-2013
</metadata>
<g transform="translate(0.000000,3189.000000) scale(0.100000,-0.100000)"
fill="#000000" stroke="none">
<path d="M15458 31885 c-2 -1 -89 -6 -194 -9 -105 -4 -209 -9 -230 -11 -21 -2
-91 -6 -154 -10 -63 -3 -133 -8 -155 -10 -22 -2 -76 -7 -120 -10 -83 -7 -132
-11 -225 -21 -30 -3 -80 -7 -110 -10 -30 -2 -66 -6 -80 -9 -14 -2 -54 -7 -90
-10 -36 -4 -76 -8 -90 -10 -14 -2 -50 -6 -80 -10 -30 -4 -66 -8 -80 -10 -14
-2 -43 -6 -65 -9 -22 -3 -71 -11 -110 -16 -38 -6 -81 -13 -95 -14 -27 -4 -116
-17 -140 -21 -8 -2 -35 -6 -60 -10 -70 -10 -93 -14 -120 -20 -14 -3 -54 -10
-90 -16 -50 -8 -273 -50 -390 -74 -97 -20 -191 -40 -265 -56 -49 -12 -99 -22
-109 -25 -198 -40 -768 -194 -1101 -296 -532 -164 -1292 -448 -1715 -641 -30
-14 -131 -60 -225 -102 -514 -234 -1029 -499 -1470 -755 -49 -29 -99 -58 -110
-64 -11 -7 -46 -27 -78 -46 -32 -19 -66 -39 -75 -45 -76 -44 -109 -65 -360
-226 -300 -191 -397 -257 -652 -438 -197 -140 -627 -463 -640 -480 -3 -4 -25
-22 -50 -41 -53 -41 -310 -250 -326 -265 -6 -5 -37 -32 -69 -60 -71 -61 -144
-125 -249 -219 -44 -39 -88 -79 -100 -89 -107 -94 -265 -246 -501 -482 -304
-303 -441 -447 -642 -675 -22 -25 -62 -70 -89 -100 -27 -31 -69 -80 -94 -109
-25 -29 -50 -59 -55 -65 -6 -6 -42 -49 -80 -96 -38 -47 -72 -87 -75 -90 -3 -3
-57 -70 -121 -150 -759 -954 -1391 -1966 -1937 -3100 -82 -170 -172 -362 -172
-366 0 -2 -16 -39 -36 -81 -19 -42 -45 -100 -56 -127 -12 -28 -25 -55 -30 -60
-4 -6 -8 -16 -8 -23 0 -6 -13 -40 -30 -75 -53 -113 -310 -761 -310 -781 0 -3
-5 -18 -12 -34 -6 -15 -12 -32 -14 -38 -2 -5 -22 -62 -44 -125 -44 -125 -159
-471 -185 -560 -9 -30 -21 -66 -26 -80 -33 -94 -214 -760 -234 -863 -3 -10 -6
-26 -9 -35 -3 -9 -7 -28 -10 -42 -2 -14 -15 -72 -29 -130 -24 -98 -132 -628
-142 -695 -2 -16 -20 -124 -39 -240 -19 -115 -37 -230 -41 -255 -3 -25 -10
-72 -15 -105 -5 -33 -12 -85 -15 -115 -3 -30 -8 -66 -10 -80 -2 -14 -7 -51
-10 -83 -4 -32 -8 -66 -10 -77 -2 -10 -7 -51 -10 -91 -4 -40 -8 -81 -10 -91
-2 -10 -7 -57 -10 -106 -4 -48 -8 -97 -10 -109 -3 -19 -7 -68 -20 -238 -2 -22
-7 -92 -10 -155 -4 -63 -9 -133 -10 -155 -26 -352 -26 -1640 0 -1796 2 -13 7
-82 10 -154 4 -71 8 -146 10 -165 1 -19 6 -73 9 -120 4 -47 9 -101 11 -120 7
-56 15 -140 20 -210 3 -36 7 -74 9 -85 2 -11 7 -54 11 -95 4 -41 9 -82 10 -91
2 -9 6 -40 10 -70 3 -30 10 -81 15 -114 5 -33 12 -85 15 -115 3 -30 8 -62 10
-70 2 -8 7 -35 10 -60 5 -36 34 -217 72 -445 30 -184 158 -781 213 -995 12
-47 23 -92 25 -100 37 -173 313 -1093 365 -1215 5 -11 21 -56 35 -100 82 -242
261 -699 393 -1005 331 -764 634 -1358 1031 -2023 58 -98 111 -186 116 -195 6
-10 64 -102 130 -206 66 -103 125 -195 130 -204 6 -9 12 -19 15 -22 3 -3 29
-41 57 -85 29 -44 84 -125 122 -180 39 -55 75 -107 81 -115 139 -202 469 -639
621 -825 113 -137 290 -349 318 -381 20 -22 49 -56 65 -75 34 -39 171 -193
201 -225 11 -11 65 -70 120 -130 112 -122 609 -621 726 -729 229 -212 350
-320 509 -455 47 -40 99 -84 115 -99 17 -14 46 -39 65 -55 19 -15 51 -41 70
-57 182 -149 201 -164 255 -204 22 -16 42 -33 45 -36 6 -8 423 -319 505 -377
33 -24 87 -63 121 -87 171 -121 592 -400 752 -496 15 -9 65 -40 112 -69 72
-44 217 -130 360 -213 42 -24 231 -131 314 -177 354 -196 945 -486 1356 -665
85 -37 173 -75 195 -85 22 -9 114 -47 205 -84 91 -37 174 -71 185 -76 29 -14
276 -106 375 -141 47 -16 94 -34 105 -39 113 -52 900 -297 1215 -379 63 -16
160 -42 215 -56 55 -14 111 -28 125 -31 14 -3 68 -16 120 -28 138 -34 226 -54
305 -70 39 -8 104 -21 145 -30 41 -8 86 -17 100 -19 14 -3 59 -12 100 -21 41
-8 89 -17 105 -20 46 -7 267 -45 295 -50 14 -3 90 -14 170 -26 80 -12 156 -23
170 -26 14 -2 48 -7 75 -10 28 -3 61 -8 75 -10 14 -2 48 -7 75 -10 28 -3 84
-9 125 -14 41 -5 100 -12 130 -15 30 -3 71 -7 90 -10 33 -5 81 -9 210 -20 30
-3 84 -7 120 -11 75 -7 122 -10 280 -19 63 -4 135 -9 160 -10 395 -26 1504
-26 1780 0 19 1 89 6 155 10 66 4 138 8 160 10 22 1 78 6 125 9 47 4 106 9
133 11 98 10 144 15 204 20 34 3 70 7 80 9 10 2 50 7 88 11 39 5 77 9 85 10 8
1 49 5 90 9 41 4 77 9 80 11 4 2 28 6 56 10 78 9 283 37 354 49 190 33 390 67
410 71 14 3 39 7 55 10 17 3 53 10 80 15 28 6 59 12 70 14 167 32 587 127 739
167 43 11 87 22 97 24 28 6 196 51 354 97 77 22 145 41 150 42 18 4 187 57
300 93 61 19 117 36 125 38 14 4 362 124 505 174 110 39 447 169 510 197 17 7
80 33 140 57 140 57 480 205 610 266 55 26 129 60 165 77 125 56 744 370 875
444 28 15 70 39 95 52 519 285 1112 661 1610 1020 74 53 140 101 145 105 6 5
26 20 45 33 19 14 37 27 40 30 3 3 43 34 90 70 113 85 164 124 170 130 3 3 37
30 75 60 39 30 97 77 131 105 33 27 80 66 104 85 24 19 62 51 85 70 23 19 67
58 100 85 113 96 160 137 170 149 6 6 23 21 38 33 26 20 94 82 311 283 45 41
196 190 336 330 339 339 551 567 809 869 25 30 62 72 82 95 19 23 79 95 133
161 54 66 106 129 115 140 98 119 452 587 584 774 183 260 431 637 585 891 52
85 98 160 102 165 4 6 19 30 32 55 14 25 57 99 95 165 75 130 89 153 180 320
187 340 409 784 576 1150 32 72 70 154 83 183 13 29 24 55 24 57 0 2 11 28 24
57 78 171 244 588 351 883 110 303 313 932 350 1085 2 8 22 83 45 165 87 318
222 897 254 1095 3 19 7 44 10 55 2 11 11 58 20 105 9 47 18 94 20 105 2 11
13 81 25 155 12 74 26 160 31 190 5 30 12 80 16 110 3 30 8 63 10 74 2 10 6
44 9 75 4 31 8 63 10 71 4 15 9 55 20 150 11 94 15 134 20 170 3 19 7 62 10
95 3 33 8 80 10 105 10 98 15 148 20 225 4 44 8 96 10 115 2 19 6 89 10 155 4
66 8 137 10 158 26 284 26 1538 0 1807 -2 25 -7 97 -10 160 -4 63 -8 131 -10
150 -2 19 -6 72 -10 116 -3 45 -7 97 -10 115 -2 19 -7 72 -10 118 -4 47 -8 92
-10 102 -2 10 -6 49 -10 86 -3 37 -8 82 -10 98 -4 27 -10 75 -20 160 -2 17 -6
46 -9 65 -3 19 -10 73 -17 120 -16 125 -16 124 -39 270 -11 74 -22 142 -25
150 -2 8 -6 33 -9 55 -4 22 -8 51 -11 65 -8 44 -15 84 -21 130 -3 25 -8 48
-10 51 -2 3 -6 21 -9 40 -3 19 -22 112 -41 207 -20 95 -38 185 -40 200 -3 15
-7 35 -10 44 -5 18 -6 23 -29 127 -9 41 -18 77 -20 81 -2 4 -7 22 -10 41 -5
29 -12 60 -29 129 -45 181 -192 713 -215 780 -5 14 -28 86 -51 160 -170 545
-442 1259 -663 1740 -14 30 -45 100 -70 155 -94 208 -302 634 -402 820 -23 44
-60 114 -82 155 -60 112 -102 188 -143 260 -21 36 -50 88 -65 115 -15 28 -75
129 -132 225 -57 96 -109 184 -116 195 -6 11 -23 37 -36 59 -14 21 -30 47 -36
57 -43 77 -334 519 -469 713 -158 225 -421 579 -539 726 -7 8 -48 60 -92 115
-44 55 -82 102 -85 105 -3 3 -25 30 -50 60 -72 88 -73 89 -186 220 -88 103
-161 186 -279 316 -251 277 -816 843 -1031 1031 -11 10 -54 47 -94 83 -185
165 -198 176 -335 290 -49 41 -92 77 -95 80 -14 14 -183 150 -331 266 -178
139 -186 145 -299 228 -41 31 -80 59 -86 64 -93 79 -754 525 -1021 690 -154
96 -502 302 -509 302 -2 0 -21 10 -42 23 -20 13 -62 37 -92 54 -30 16 -71 39
-90 50 -19 11 -89 48 -155 83 -66 35 -124 66 -130 70 -14 11 -515 261 -631
316 -82 38 -455 208 -569 258 -51 23 -276 117 -355 148 -41 16 -88 35 -105 42
-102 44 -426 164 -670 249 -512 178 -1121 353 -1610 464 -60 13 -117 26 -125
28 -100 23 -664 133 -722 140 -15 2 -53 9 -85 14 -32 6 -71 12 -88 15 -50 7
-178 27 -205 32 -79 13 -395 52 -552 69 -27 3 -69 7 -95 10 -55 6 -99 11 -203
20 -41 4 -91 8 -110 10 -19 2 -80 6 -135 10 -55 3 -120 8 -145 10 -25 2 -99 7
-165 10 -66 4 -156 9 -200 11 -86 6 -1182 14 -1187 9z m832 -4559 c91 -4 181
-9 200 -11 19 -2 73 -6 119 -10 47 -3 98 -8 115 -10 17 -3 56 -7 86 -10 30 -3
66 -8 80 -10 14 -2 45 -7 70 -10 25 -3 63 -8 85 -12 22 -3 49 -7 60 -8 16 -3
226 -41 325 -60 23 -4 121 -27 180 -42 14 -3 30 -7 36 -8 137 -30 486 -138
681 -211 255 -95 395 -156 633 -276 218 -110 232 -118 400 -216 124 -73 496
-317 520 -342 3 -3 50 -39 105 -80 108 -81 116 -87 180 -140 24 -19 62 -51 85
-70 24 -19 48 -39 54 -45 6 -5 50 -44 96 -85 175 -154 471 -445 615 -604 44
-49 89 -98 100 -110 76 -79 355 -429 448 -561 29 -41 262 -394 284 -430 220
-362 434 -818 571 -1220 29 -85 110 -343 117 -375 2 -8 15 -58 28 -110 23 -88
61 -253 72 -310 3 -14 12 -59 20 -100 16 -79 50 -291 60 -375 3 -27 8 -63 10
-80 8 -52 14 -116 20 -199 4 -45 8 -92 11 -106 10 -59 19 -346 18 -605 0 -305
-7 -482 -30 -690 -3 -33 -7 -76 -9 -95 -5 -65 -16 -165 -20 -180 -2 -8 -6 -35
-9 -60 -3 -25 -7 -54 -10 -65 -2 -11 -7 -42 -10 -70 -4 -27 -9 -57 -11 -65 -2
-8 -6 -32 -10 -53 -5 -38 -14 -82 -57 -275 -11 -52 -21 -99 -22 -105 -2 -7 -8
-32 -15 -57 -7 -25 -15 -55 -17 -67 -15 -80 -141 -472 -218 -678 -188 -500
-522 -1099 -870 -1560 -88 -117 -256 -328 -275 -345 -9 -8 -25 -27 -37 -41
-83 -108 -539 -574 -689 -706 -333 -291 -597 -491 -910 -690 -139 -89 -379
-229 -465 -272 -25 -12 -52 -26 -60 -31 -22 -14 -252 -122 -340 -160 -123 -53
-133 -58 -190 -79 -30 -12 -64 -26 -75 -31 -96 -46 -641 -216 -800 -249 -22
-5 -80 -18 -130 -29 -49 -12 -103 -23 -120 -26 -16 -3 -41 -8 -55 -11 -44 -9
-84 -16 -110 -20 -14 -2 -70 -11 -125 -20 -107 -18 -132 -21 -210 -30 -27 -4
-61 -8 -75 -10 -14 -2 -56 -6 -95 -10 -38 -3 -86 -8 -105 -10 -245 -30 -885
-35 -1180 -10 -25 2 -81 7 -125 10 -44 3 -96 8 -115 10 -19 3 -60 7 -90 10
-30 3 -66 8 -80 10 -14 2 -61 9 -105 15 -44 6 -93 13 -110 15 -52 9 -89 15
-111 19 -12 2 -37 7 -55 10 -125 20 -465 98 -555 127 -17 5 -40 11 -50 14
-127 26 -573 182 -764 267 -246 109 -422 193 -560 270 -159 88 -207 116 -308
178 -309 190 -688 473 -967 720 -379 336 -769 766 -1049 1155 -47 66 -91 125
-96 132 -31 38 -300 464 -300 476 0 2 -22 42 -49 89 -308 536 -580 1291 -697
1938 -40 220 -66 399 -79 535 -2 28 -7 73 -10 100 -22 203 -30 393 -29 735 1
302 4 386 19 585 9 120 28 299 41 380 2 17 6 46 8 65 3 19 10 67 16 105 7 39
14 84 17 100 40 254 139 650 232 930 242 733 597 1382 1105 2025 50 63 98 122
106 130 8 9 40 45 70 80 293 344 717 748 1075 1023 55 42 105 80 110 85 6 4
46 33 90 65 44 31 85 60 90 65 24 19 286 192 291 192 3 0 29 15 57 34 135 88
495 281 668 356 41 18 97 43 124 55 28 13 86 37 130 54 44 18 89 36 100 41 11
5 79 30 150 55 72 25 148 52 170 60 52 18 352 105 385 111 14 3 59 14 100 24
66 17 215 50 293 65 15 3 37 7 50 10 59 11 244 42 307 50 25 3 61 7 80 10 19
2 60 7 90 10 30 3 66 8 80 10 24 4 140 14 225 20 22 2 114 6 205 10 91 4 166
8 167 9 4 4 380 -2 523 -8z m-6607 -12633 c67 -74 425 -433 497 -498 167 -151
269 -239 453 -389 118 -95 416 -313 579 -422 187 -126 443 -284 458 -284 6 0
10 -4 10 -10 0 -5 4 -10 9 -10 5 0 42 -19 83 -42 139 -79 273 -149 448 -234
96 -46 184 -89 194 -95 54 -31 434 -183 621 -249 66 -23 129 -46 140 -51 22
-9 308 -98 398 -123 224 -63 507 -132 617 -151 19 -3 67 -12 105 -20 70 -14
274 -49 350 -60 23 -3 50 -7 62 -9 17 -4 85 -12 253 -31 19 -3 51 -7 70 -9 19
-3 73 -8 120 -11 47 -4 98 -8 115 -10 157 -19 986 -27 1210 -12 194 14 402 33
455 41 14 3 52 7 85 11 60 6 244 31 300 41 226 37 346 60 520 99 453 103 1009
277 1320 415 11 5 79 33 150 63 245 104 606 281 783 386 29 17 55 31 57 31 16
0 425 253 565 349 41 29 86 59 100 69 31 20 309 222 330 239 89 71 262 210
289 231 19 15 43 36 55 48 12 11 55 49 96 85 149 128 513 483 633 618 l48 54
107 -17 c59 -8 114 -17 122 -19 8 -2 38 -8 65 -12 28 -5 52 -10 55 -10 3 -1
23 -5 45 -9 64 -13 233 -55 325 -83 47 -13 92 -26 100 -28 8 -2 16 -4 18 -5 1
-2 5 -3 10 -4 130 -29 592 -228 802 -346 122 -69 372 -229 428 -275 9 -7 63
-49 119 -93 180 -138 433 -378 589 -557 38 -44 71 -82 74 -85 89 -89 433 -583
566 -815 19 -33 40 -69 47 -80 32 -51 57 -96 97 -170 23 -44 56 -104 72 -132
150 -273 378 -782 511 -1143 101 -274 234 -675 273 -825 2 -5 15 -53 29 -105
15 -52 29 -102 31 -110 2 -8 31 -123 64 -255 33 -132 62 -249 65 -260 3 -19
42 -201 50 -235 25 -114 82 -411 90 -465 1 -11 8 -49 14 -85 17 -98 21 -123
26 -150 3 -14 7 -43 10 -65 4 -22 10 -65 15 -95 27 -163 28 -152 -41 -248
-137 -190 -505 -669 -539 -702 -3 -3 -25 -30 -50 -60 -25 -30 -54 -66 -65 -79
-11 -13 -68 -79 -126 -145 -58 -67 -116 -134 -130 -149 -13 -16 -37 -43 -54
-61 -16 -18 -77 -83 -135 -146 -135 -148 -566 -579 -695 -695 -55 -49 -114
-103 -131 -120 -18 -16 -45 -41 -61 -54 -15 -14 -64 -57 -108 -95 -44 -39
-104 -91 -134 -116 -29 -25 -63 -53 -75 -64 -57 -50 -418 -335 -546 -432 -80
-60 -149 -113 -155 -117 -44 -35 -320 -226 -505 -348 -124 -82 -229 -153 -235
-157 -9 -7 -116 -73 -157 -97 -9 -5 -45 -28 -80 -49 -57 -35 -307 -182 -383
-226 -76 -43 -224 -124 -345 -190 -105 -56 -607 -307 -715 -357 -194 -90 -569
-253 -581 -253 -3 0 -24 -9 -47 -19 -67 -31 -449 -174 -612 -231 -161 -55
-392 -131 -409 -134 -6 -1 -50 -14 -98 -29 -229 -70 -290 -87 -588 -163 -147
-38 -428 -103 -520 -120 -14 -3 -90 -18 -170 -34 -80 -16 -161 -32 -180 -35
-19 -3 -71 -12 -115 -20 -44 -7 -98 -16 -120 -20 -22 -3 -65 -10 -95 -15 -30
-5 -75 -12 -100 -15 -25 -3 -56 -8 -70 -10 -14 -2 -45 -7 -70 -10 -25 -3 -56
-8 -70 -10 -14 -2 -54 -7 -90 -11 -36 -3 -72 -7 -80 -9 -8 -2 -44 -6 -80 -9
-36 -4 -81 -9 -100 -11 -19 -2 -62 -7 -95 -10 -33 -3 -80 -7 -105 -10 -25 -2
-81 -7 -125 -10 -44 -3 -102 -7 -130 -10 -122 -11 -315 -21 -575 -30 -139 -5
-733 -5 -885 0 -194 6 -463 20 -585 30 -30 3 -89 7 -130 11 -88 6 -148 11
-210 18 -25 3 -79 8 -120 12 -41 3 -83 8 -92 9 -9 2 -48 7 -85 10 -37 4 -77 9
-88 11 -11 2 -58 9 -105 14 -47 6 -96 13 -110 15 -14 2 -45 7 -70 10 -25 3
-74 11 -110 16 -36 6 -78 13 -95 15 -16 3 -102 18 -190 34 -88 16 -174 32
-192 35 -17 3 -96 19 -175 36 -79 16 -154 32 -168 35 -13 3 -63 14 -110 25
-47 11 -112 27 -145 34 -212 48 -638 168 -920 259 -242 78 -550 186 -632 222
-17 8 -34 14 -37 14 -10 0 -406 159 -463 186 -28 13 -54 24 -57 24 -3 0 -36
14 -73 31 -38 17 -88 40 -112 50 -157 68 -667 320 -881 435 -427 229 -827 469
-1210 725 -186 124 -389 264 -415 286 -5 5 -32 24 -60 43 -27 19 -56 40 -65
47 -8 7 -96 74 -195 149 -99 76 -182 140 -185 143 -3 4 -25 22 -50 41 -50 38
-325 266 -351 290 -8 8 -49 44 -89 80 -123 108 -281 250 -355 319 -122 116
-517 513 -616 621 -133 144 -194 211 -219 240 -12 14 -45 52 -73 85 -29 33
-70 80 -93 105 -50 55 -291 351 -359 440 -28 36 -53 67 -56 70 -8 7 -230 304
-308 412 l-63 87 12 93 c7 51 14 102 16 113 6 29 12 64 18 110 4 22 15 90 26
150 10 61 22 130 25 155 4 24 8 48 11 51 2 4 6 24 9 45 3 22 8 50 11 64 3 14
8 36 10 50 17 97 125 591 150 680 8 33 34 136 38 155 2 11 14 54 26 95 12 41
23 86 26 100 3 14 12 45 19 70 8 25 35 115 61 200 25 85 50 169 55 185 6 17
12 37 14 45 13 53 174 508 205 580 10 25 40 99 66 165 25 65 50 126 55 135 4
8 28 62 53 120 78 185 247 535 336 695 291 530 528 875 834 1214 76 85 254
263 331 331 33 29 75 66 94 83 18 16 95 76 170 134 75 57 141 107 147 112 5 4
21 14 35 21 13 7 26 16 29 19 8 10 189 125 240 152 25 13 47 26 50 29 3 3 19
13 35 21 17 8 68 35 115 59 120 62 234 113 390 174 113 45 260 98 280 101 3 0
37 11 75 23 39 12 79 24 90 27 11 2 47 12 80 21 33 9 67 17 75 19 8 2 80 17
160 33 160 34 191 40 265 48 28 4 52 8 54 10 2 2 15 4 28 4 16 0 40 -18 76
-57z"/>
</g>
</svg>
