<svg xmlns:rdf="http://www.w3.org/1999/02/22-rdf-syntax-ns#" xmlns="http://www.w3.org/2000/svg" version="1.1" xmlns:cc="http://creativecommons.org/ns#" xmlns:dc="http://purl.org/dc/elements/1.1/" viewBox="0 0 100 100">
	<path d="m29.813 15.221q9.2569-5.3868 20.187-5.3868t20.135 5.3868q9.2569 5.3868 14.644 14.644 5.387 9.205 5.387 20.135t-5.3868 20.187q-5.3868 9.2046-14.644 14.591-9.2046 5.3868-20.135 5.3868t-20.187-5.3868q-9.205-5.386-14.592-14.591-5.3866-9.257-5.3866-20.187t5.3868-20.135q5.3868-9.2569 14.591-14.644zm40.27 37.655q1.673-.941 1.673-2.876 0-1.9351-1.6736-2.8764l-28.45-16.736q-1.6213-.99368-3.3471-.0523-1.6736.99368-1.6736 2.9287v33.471q0 1.9351 1.6736 2.9287.83678.41839 1.6736.41839.88908 0 1.6736-.47069l28.451-16.735z"/>
</svg>
