<svg xmlns:rdf="http://www.w3.org/1999/02/22-rdf-syntax-ns#" xmlns="http://www.w3.org/2000/svg" version="1.1" xmlns:cc="http://creativecommons.org/ns#" xmlns:dc="http://purl.org/dc/elements/1.1/" viewBox="0 0 100 100">
	<g transform="translate(0 -952.36)">
		<g>
			<path d="m29.447 966.95q9.425-5.48 20.553-5.48t20.5 5.4843q9.4245 5.4843 14.909 14.909 5.4843 9.3713 5.4843 20.5 0 11.128-5.4843 20.553-5.4843 9.3712-14.909 14.856-9.3713 5.4843-20.5 5.4843-11.128 0-20.553-5.4843-9.3713-5.4843-14.856-14.856-5.4843-9.4245-5.4843-20.553t5.4843-20.5q5.4843-9.4245 14.856-14.909zm40.999 38.337q1.7039-.9584 1.7039-2.9286 0-1.97-1.7039-2.9284l-28.965-17.05q-1.6506-1.0116-3.4077-.0533-1.7039 1.0116-1.7039 2.9817v34.077q0 1.9702 1.7039 2.9819.85193.4259 1.7039.4259.90518 0 1.7039-.4792l28.966-17.039z"/>
		</g>
	</g>
</svg>
