<svg xmlns:rdf="http://www.w3.org/1999/02/22-rdf-syntax-ns#" xmlns="http://www.w3.org/2000/svg" version="1.1" xmlns:cc="http://creativecommons.org/ns#" xmlns:dc="http://purl.org/dc/elements/1.1/" viewBox="0 0 100 100">
	<path d="m73.322 53.332v-6.6636q0-1.3535-.98912-2.3426-.98912-.98912-2.3426-.98912h-13.327v-13.327q0-1.3535-.98912-2.3426-.98912-.98912-2.3426-.98912h-6.6635q-1.3535 0-2.3426.98912-.98912.98912-.98912 2.3426v13.327h-13.327q-1.3535 0-2.3426.98912-.98912.98911-.98912 2.3426v6.6636q0 1.3535.98912 2.3426t2.3426.9891h13.327v13.327q0 1.3536.98912 2.3427t2.3426.9891h6.6635q1.3535 0 2.3426-.9891.98912-.9891.98912-2.3427v-13.327h13.327q1.3535 0 2.3426-.9891.98912-.9891.98912-2.3426zm11.297-23.374q5.362 9.1623 5.362 20.043 0 10.88-5.362 20.095-5.362 9.1623-14.576 14.524-9.1623 5.3621-20.043 5.3621-10.88 0-20.095-5.3621-9.1623-5.362-14.524-14.524-5.362-9.2144-5.362-20.095 0-10.88 5.362-20.043 5.362-9.2144 14.524-14.576 9.2144-5.362 20.095-5.362 10.88 0 20.043 5.362 9.2144 5.362 14.576 14.576z"/>
</svg>
