<svg xmlns:rdf="http://www.w3.org/1999/02/22-rdf-syntax-ns#" xmlns="http://www.w3.org/2000/svg" version="1.1" xmlns:cc="http://creativecommons.org/ns#" xmlns:dc="http://purl.org/dc/elements/1.1/" viewBox="0 0 100 100">
	<path d="m77.857 34.439q-3.0469 1.3602-6.5834 1.8499 3.6998-2.1763 5.06-6.3658-3.5366 2.0675-7.2907 2.7748-3.3189-3.591-8.3245-3.591-4.7335 0-8.1069 3.3733-3.3189 3.3189-3.3189 8.0525 0 1.5778.27204 2.6116-7.0187-.38086-13.167-3.5366-6.1482-3.1557-10.446-8.4333-1.5778 2.7204-1.5778 5.7673 0 6.2026 4.9512 9.5215-2.5572-.05441-5.4408-1.4146v.10882q0 4.0806 2.7204 7.2907 2.7204 3.1557 6.6922 3.9174-1.5778.43527-2.7748.43527-.70731 0-2.1219-.21763 1.1426 3.4277 4.0262 5.6585 2.9381 2.2307 6.6378 2.2852-6.3114 4.8968-14.201 4.8968-1.4146 0-2.7204-.16323 8.0525 5.1144 17.52 5.1144 6.0938 0 11.426-1.9043 5.332-1.9587 9.1406-5.1688 3.8086-3.2645 6.529-7.454 2.7748-4.2439 4.0806-8.8142 1.3602-4.6247 1.3602-9.195 0-.97935-.05441-1.469 3.4277-2.4484 5.7129-5.9305zm13.929-10.555v52.232q0 6.4746-4.6247 11.045-4.5703 4.6247-11.045 4.6247h-52.232q-6.4746 0-11.099-4.6247-4.5707-4.57-4.5707-11.045v-52.232q0-6.4746 4.5703-11.045 4.6247-4.6247 11.099-4.6247h52.232q6.4746 0 11.045 4.6247 4.6247 4.5703 4.6247 11.045z"/>
</svg>
