<svg xmlns="http://www.w3.org/2000/svg" version="1.1"  viewBox="0 0 100 100">
	<path d="m53.187 48.207v28.879q0 5.1783-3.7841 8.9624t-8.9624 3.7841-8.9624-3.7841-3.7841-8.9624q0-1.2945.94603-2.2406.94603-.946 2.2406-.946t2.2406.946q.94603.9461.94603 2.2406 0 2.4896 1.9418 4.4314 1.9418 1.9419 4.4314 1.9419t4.4314-1.9419q1.9418-1.9418 1.9418-4.4314v-28.879q1.6431-.5477 3.1866-.5477t3.1866.5477zm38.24 1.3444q0 .6473-.49791 1.1452-.44812.4481-1.0954.4481-.5477 0-1.1452-.4979-2.4398-2.2904-4.6306-3.4356t-5.0787-1.1452q-3.3858 0-6.3732 1.8423-2.9875 1.8423-5.1285 4.8297-.34854.4979-.89624 1.3942-.49791.8962-.69707 1.195-.54770.8464-1.3941.8464-.89624 0-1.4439-.8464-.19916-.2988-.74687-1.195-.49791-.8963-.84645-1.3942-2.141-2.9874-5.1285-4.8297-2.9377-1.8423-6.3235-1.8423t-6.3733 1.8423q-2.9377 1.8423-5.0787 4.8297-.34854.4979-.89624 1.3942-.49791.8962-.69707 1.195-.54770.8464-1.4439.8464-.84645 0-1.3941-.8464-.19916-.2988-.74686-1.195-.49791-.8963-.84645-1.3942-2.141-2.9874-5.1285-4.8297t-6.3733-1.8423q-2.8879 0-5.0787 1.1452t-4.6306 3.4356q-.59749.4979-1.1452.4979-.64728 0-1.1452-.4481-.44812-.4979-.44812-1.1452 0-.249.04979-.3485 2.2406-9.1118 8.5641-15.883 6.3733-6.8214 14.838-10.207 8.5143-3.3858 17.975-3.3858 6.9707 0 13.643 1.9916 6.7218 1.9916 12.298 5.6762 5.5766 3.6347 9.6595 9.3109 4.1327 5.6264 5.7758 12.498.0498.1.0498.3485zm-38.24-36.198v4.8795q-2.0912-.09958-3.1866-.09958t-3.1866.0996v-4.8795q0-1.2946.94603-2.2406.94603-.94603 2.2406-.94603t2.2406.94603q.94603.94603.94603 2.2406z"/>
</svg>
