<svg xmlns:rdf="http://www.w3.org/1999/02/22-rdf-syntax-ns#" xmlns="http://www.w3.org/2000/svg" version="1.1" xmlns:cc="http://creativecommons.org/ns#" xmlns:dc="http://purl.org/dc/elements/1.1/" viewBox="0 0 100 100">
 <path d="m86.191 78.736q2.9153 4.6332 1.0932 7.9129-1.77 3.3317-7.2882 3.3317h-59.971q-5.5182 0-7.3402-3.3317-1.77-3.2797 1.1453-7.9129l26.185-41.282v-20.771h-3.3317q-1.3535 0-2.3426-0.98911-0.98911-0.98911-0.98911-2.3426t0.98911-2.3426q0.98911-0.98911 2.3426-0.98911h26.654q1.3535 0 2.3426 0.98911 0.98911 0.98911 0.98911 2.3426t-0.98911 2.3426q-0.98911 0.98911-2.3426 0.98911h-3.3317v20.771l26.185 41.282zm-40.554-37.742-14.16 22.333h37.066l-14.16-22.333-1.0412-1.6138v-1.9262-20.771h-6.6635v20.771 1.9262l-1.0412 1.6138z"/>
</svg>
