<?xml version="1.0" encoding="UTF-8" standalone="no"?>
<!-- Created with Inkscape (http://www.inkscape.org/) -->

<svg
   xmlns:osb="http://www.openswatchbook.org/uri/2009/osb"
   xmlns:dc="http://purl.org/dc/elements/1.1/"
   xmlns:cc="http://creativecommons.org/ns#"
   xmlns:rdf="http://www.w3.org/1999/02/22-rdf-syntax-ns#"
   xmlns:svg="http://www.w3.org/2000/svg"
   xmlns="http://www.w3.org/2000/svg"
   xmlns:sodipodi="http://sodipodi.sourceforge.net/DTD/sodipodi-0.dtd"
   xmlns:inkscape="http://www.inkscape.org/namespaces/inkscape"
   width="1000"
   height="1000"
   viewBox="0 0 1000 1000"
   id="svg3336"
   version="1.1"
   inkscape:version="0.91 r"
   sodipodi:docname="favicon-baseimage.svg"
   inkscape:export-filename="/home/robinson/Programs/src/github.com/ramirezra/html-css/section25/favicon-baseimage.png"
   inkscape:export-xdpi="300"
   inkscape:export-ydpi="300">
  <defs
     id="defs3338">
    <linearGradient
       id="linearGradient5686"
       osb:paint="solid">
      <stop
         style="stop-color:#65e341;stop-opacity:1;"
         offset="0"
         id="stop5688" />
    </linearGradient>
  </defs>
  <sodipodi:namedview
     id="base"
     pagecolor="#ffffff"
     bordercolor="#666666"
     borderopacity="1.0"
     inkscape:pageopacity="0.0"
     inkscape:pageshadow="2"
     inkscape:zoom="0.26682232"
     inkscape:cx="-732.16922"
     inkscape:cy="74.485469"
     inkscape:document-units="px"
     inkscape:current-layer="layer1"
     showgrid="false"
     units="px"
     inkscape:window-width="1280"
     inkscape:window-height="750"
     inkscape:window-x="0"
     inkscape:window-y="0"
     inkscape:window-maximized="1"
     inkscape:snap-global="true"
     inkscape:snap-nodes="false"
     inkscape:snap-others="false" />
  <metadata
     id="metadata3341">
    <rdf:RDF>
      <cc:Work
         rdf:about="">
        <dc:format>image/svg+xml</dc:format>
        <dc:type
           rdf:resource="http://purl.org/dc/dcmitype/StillImage" />
        <dc:title />
      </cc:Work>
    </rdf:RDF>
  </metadata>
  <g
     inkscape:label="Layer 1"
     inkscape:groupmode="layer"
     id="layer1"
     transform="translate(0,-52.362161)">
    <g
       style="font-style:normal;font-variant:normal;font-weight:normal;font-stretch:normal;font-size:956.80865479px;line-height:125%;font-family:FontAwesome;-inkscape-font-specification:'FontAwesome, Normal';text-align:start;letter-spacing:0px;word-spacing:0px;writing-mode:lr-tb;text-anchor:start;opacity:1;fill:#00003a;fill-opacity:1;stroke:none;stroke-width:1px;stroke-linecap:round;stroke-linejoin:bevel;stroke-opacity:0.14572868"
       id="text4235">
      <path
         d="M 838.28524,790.51257 Q 826.5387,707.75289 791.2991,653.29168 q -34.70567,-54.99514 -98.24375,-63.53807 -35.77353,39.51107 -85.42934,61.93627 -49.12187,21.89127 -104.11701,21.89127 -54.99514,0 -104.65095,-21.89127 -49.12187,-22.4252 -84.89541,-61.93627 -63.53808,8.54293 -98.77768,63.53807 -34.70567,54.46121 -46.45221,137.22089 56.59694,80.09001 144.69596,126.54221 88.09901,46.98614 190.08029,46.98614 101.98128,0 190.08029,-46.98614 88.09901,-46.4522 144.69595,-126.54221 z M 648.20495,562.52301 q 60.33447,-60.33448 60.33447,-145.22989 0,-84.89541 -60.33447,-144.69595 Q 588.40441,212.2627 503.509,212.2627 q -84.89541,0 -145.22989,60.33447 -59.80054,59.80054 -59.80054,144.69595 0,84.89541 59.80054,145.22989 60.33448,59.80054 145.22989,59.80054 84.89541,0 144.69595,-59.80054 z m 295.7991,-194.35176 q 37.90927,88.63294 37.90927,185.80882 0,97.17588 -37.90927,185.80883 -37.90927,88.09901 -101.98128,152.70495 -63.53807,64.07201 -152.17102,101.98128 -88.63294,37.90927 -186.34275,37.90927 -97.17588,0 -185.80883,-37.90927 Q 229.06723,956.56586 164.99522,892.49385 100.92321,828.42184 63.013941,739.7889 25.10467,651.15595 25.10467,553.98007 q 0,-97.17588 37.909271,-185.80882 Q 100.92321,279.5383 164.99522,215.4663 229.06723,151.39429 317.70017,113.48502 406.33312,75.575745 503.509,75.575745 q 97.17588,0 185.80882,37.909275 88.63295,37.90927 152.70495,101.98128 64.07201,64.072 101.98128,152.70495 z"
         style="fill:#00003a;fill-opacity:1;stroke:none;stroke-linecap:round;stroke-linejoin:bevel;stroke-opacity:0.14572868"
         id="path4240"
         inkscape:connector-curvature="0" />
    </g>
  </g>
  <g
     inkscape:groupmode="layer"
     id="layer2"
     inkscape:label="Layer 2" />
</svg>
