<svg xmlns:rdf="http://www.w3.org/1999/02/22-rdf-syntax-ns#" xmlns="http://www.w3.org/2000/svg" version="1.1" xmlns:cc="http://creativecommons.org/ns#" xmlns:dc="http://purl.org/dc/elements/1.1/" viewBox="0 0 100 100">
	<path d="m38.599 27.198h22.802v-5.7005h-22.802v5.7005zm51.304 28.502v21.377q0 2.9393-2.0931 5.0325-2.0931 2.0931-5.0325 2.0931h-65.556q-2.9393 0-5.0325-2.0931-2.0931-2.0931-2.0931-5.0325v-21.377h29.928v7.1256q0 1.1579.84616 2.0041.84617.84616 2.0041.84616h14.251q1.1579 0 2.0041-.84616.84617-.84617.84617-2.0041v-7.1256h29.928zm-34.203 0v5.7005h-11.401v-5.7005h11.401zm34.203-21.377v17.101h-79.807v-17.101q0-2.9393 2.0931-5.0325 2.0931-2.0931 5.0325-2.0931h15.676v-7.1256q0-1.7814 1.247-3.0284t3.0284-1.247h25.652q1.7814 0 3.0284 1.247t1.247 3.0284v7.1256h15.676q2.9393 0 5.0325 2.0931 2.0931 2.0931 2.0931 5.0325z"/>
</svg>
