<svg xmlns:rdf="http://www.w3.org/1999/02/22-rdf-syntax-ns#" xmlns="http://www.w3.org/2000/svg" version="1.1" xmlns:cc="http://creativecommons.org/ns#" xmlns:dc="http://purl.org/dc/elements/1.1/" viewBox="0 0 100 100">
 <path d="m17.888 85.031h13.137v-13.137h-13.137v13.137zm16.056 0h14.596v-13.137h-14.596v13.137zm-16.056-16.056h13.137v-14.596h-13.137v14.596zm16.056 0h14.596v-14.596h-14.596v14.596zm-16.056-17.516h13.137v-13.137h-13.137v13.137zm33.571 33.571h14.596v-13.137h-14.596v13.137zm-17.515-33.57h14.596v-13.137h-14.596v13.137zm35.031 33.571h13.137v-13.137h-13.137v13.137zm-17.516-16.056h14.596v-14.596h-14.596v14.596zm-16.056-39.41v-13.137q0-0.59297-0.45613-1.0035-0.41052-0.45613-1.0035-0.45613h-2.9193q-0.59297 0-1.0491 0.45613-0.41052 0.41052-0.41052 1.0035v13.137q0 0.59297 0.41052 1.0491 0.45613 0.41052 1.0491 0.41052h2.9193q0.59297 0 1.0035-0.41052 0.45613-0.45613 0.45613-1.0491zm33.571 39.41h13.137v-14.596h-13.137v14.596zm-17.516-17.516h14.596v-13.137h-14.596v13.137zm17.516 0h13.137v-13.137h-13.137v13.137zm1.4596-21.894v-13.137q0-0.59297-0.45613-1.0035-0.41052-0.45613-1.0035-0.45613h-2.9193q-0.59297 0-1.0491 0.45613-0.41052 0.41052-0.41052 1.0035v13.137q0 0.59297 0.41052 1.0491 0.45613 0.41052 1.0491 0.41052h2.9193q0.59297 0 1.0035-0.41052 0.45613-0.45613 0.45613-1.0491zm17.516-2.9193v58.385q0 2.3719-1.7333 4.1052t-4.1052 1.7333h-64.224q-2.3719 0-4.1052-1.7333t-1.7333-4.1052v-58.385q0-2.3719 1.7333-4.1052t4.1052-1.7333h5.8385v-4.3789q0-3.0105 2.1438-5.1543t5.1543-2.1438h2.9193q3.0105 0 5.1543 2.1438t2.1438 5.1543v4.3789h17.516v-4.3789q0-3.0105 2.1438-5.1543t5.1543-2.1438h2.9193q3.0105 0 5.1543 2.1438t2.1438 5.1543v4.3789h5.8385q2.3719 0 4.1052 1.7333t1.7333 4.1052z"/>
</svg>
