<svg xmlns:rdf="http://www.w3.org/1999/02/22-rdf-syntax-ns#" xmlns="http://www.w3.org/2000/svg" version="1.1" xmlns:cc="http://creativecommons.org/ns#" xmlns:dc="http://purl.org/dc/elements/1.1/" viewBox="0 0 100 100">
 <path d="m24.967 61.177q1.7296-1.5009 1.7296-3.5942t-1.7296-3.5547q-1.684-1.5009-4.0963-1.5009t-4.1418 1.5009q-1.684 1.4614-1.684 3.5547t1.684 3.5942q1.7296 1.4614 4.1418 1.4614 2.4123 0 4.0963-1.4614zm8.7388-17.694q1.7296-1.5009 1.7296-3.5942t-1.7296-3.5547q-1.684-1.5009-4.0963-1.5009t-4.1418 1.5009q-1.684 1.4614-1.684 3.5547t1.684 3.5942q1.7296 1.4614 4.1418 1.4614 2.4123 0 4.0963-1.4614zm21.21 15.404 4.597-15.088q0.27309-1.0269-0.36412-1.8958-0.59169-0.90842-1.7296-1.1849-1.1379-0.27647-2.1847 0.27647-1.0468 0.51345-1.3654 1.5404l-4.597 15.088q-2.7309 0.19748-4.8701 1.7378-2.1392 1.5009-2.8674 3.8706-0.9103 3.0412 0.9103 5.7665 1.8206 2.7252 5.3252 3.5152 3.5046 0.78993 6.6452-0.78992 3.1405-1.5799 4.0508-4.6211 0.72824-2.3698-0.27309-4.6211t-3.2771-3.5942zm28.31 2.2908q1.7296-1.5009 1.7296-3.5942t-1.7296-3.5547q-1.684-1.5009-4.0963-1.5009t-4.1418 1.5009q-1.684 1.4614-1.684 3.5547t1.684 3.5942q1.7296 1.4614 4.1418 1.4614 2.4123 0 4.0963-1.4614zm-29.13-25.278q1.7296-1.5009 1.7296-3.5942t-1.7296-3.5547q-1.684-1.501-4.096-1.501-2.4123 0-4.1418 1.5009-1.684 1.4614-1.684 3.5547t1.684 3.5942q1.7296 1.4614 4.1418 1.4614 2.4123 0 4.0963-1.4614zm20.391 7.5833q1.7296-1.5009 1.7296-3.5942t-1.7296-3.5547q-1.684-1.5009-4.0963-1.5009t-4.1418 1.5009q-1.684 1.4614-1.684 3.5547t1.684 3.5942q1.7296 1.4614 4.1418 1.4614 2.4123 0 4.0963-1.4614zm16.294 14.1q0 10.309-6.4176 19.077-0.86478 1.1454-2.4578 1.1454h-63.812q-1.593 0-2.4578-1.1454-6.4176-8.7287-6.4176-19.077 0-7.1883 3.2315-13.745 3.2315-6.5564 8.6933-11.296t13.017-7.5438q7.556-2.803 15.84-2.803 8.2837 0 15.839 2.8042 7.5555 2.8042 13.017 7.5438 5.4618 4.7396 8.6933 11.296t3.2315 13.745z"/>
</svg>
