<svg xmlns:rdf="http://www.w3.org/1999/02/22-rdf-syntax-ns#" xmlns="http://www.w3.org/2000/svg" version="1.1" xmlns:cc="http://creativecommons.org/ns#" xmlns:dc="http://purl.org/dc/elements/1.1/" viewBox="0 0 100 100">
 <path d="m89.71 38.92v35.19q0 2.9251-2.083 5.0081t-5.0081 2.083h-65.238q-2.9251 0-5.0081-2.083t-2.083-5.0081v-35.19q1.9501 2.1716 4.4763 3.8558 16.044 10.903 22.027 15.29 2.5262 1.8614 4.0774 2.9251 1.5955 1.0193 4.2103 2.1273 2.6148 1.0637 4.8751 1.0637h0.04432 0.04432q2.2603 0 4.8751-1.0637 2.6148-1.108 4.166-2.1273 1.5955-1.0637 4.1217-2.9251 7.5343-5.4513 22.071-15.29 2.5262-1.7285 4.4319-3.8558zm0-13.03q0 3.5012-2.1716 6.6922t-5.407 5.4513q-16.664 11.567-20.741 14.404-0.44319 0.31024-1.9057 1.3739-1.4182 1.0193-2.3932 1.6841-0.93071 0.62047-2.3046 1.4182-1.3296 0.79775-2.5262 1.1966-1.1966 0.39887-2.216 0.39887h-0.04432-0.04432q-1.0193 0-2.216-0.39887-1.1966-0.39887-2.5705-1.1966-1.3296-0.79775-2.3046-1.4182-0.93071-0.66479-2.3932-1.6841-1.4182-1.0637-1.8614-1.3739-4.0331-2.8364-11.612-8.0661-7.5786-5.274-9.0855-6.3377-2.7478-1.8614-5.1854-5.0967-2.4376-3.2796-2.4376-6.0718 0-3.4569 1.8171-5.7615 1.8614-2.3046 5.274-2.3046h65.238q2.8808 0 4.9638 2.083 2.1273 2.083 2.1273 5.0081z"/>
</svg>
