<?xml version="1.0" encoding="UTF-8" standalone="no"?>
<!-- Created with Inkscape (http://www.inkscape.org/) -->

<svg
   xmlns:svg="http://www.w3.org/2000/svg"
   xmlns="http://www.w3.org/2000/svg"
   xmlns:sodipodi="http://sodipodi.sourceforge.net/DTD/sodipodi-0.dtd"
   xmlns:inkscape="http://www.inkscape.org/namespaces/inkscape"
   width="100"
   height="100"
   viewBox="0 0 100 100"
   id="svg2"
   version="1.1"
   inkscape:version="0.91 r"
   sodipodi:docname="icon-template.svg">
  <defs
     id="defs4" />
  <sodipodi:namedview
     id="base"
     pagecolor="#ffffff"
     bordercolor="#666666"
     borderopacity="1.0"
     inkscape:pageopacity="0.0"
     inkscape:pageshadow="2"
     inkscape:zoom="3.01875"
     inkscape:cx="20.753396"
     inkscape:cy="20.744511"
     inkscape:document-units="px"
     inkscape:current-layer="svg2"
     showgrid="true"
     units="px"
     inkscape:window-width="1920"
     inkscape:window-height="1028"
     inkscape:window-x="0"
     inkscape:window-y="0"
     inkscape:window-maximized="1">
    <inkscape:grid
       type="xygrid"
       id="grid3336"
       originx="10"
       originy="10"
       spacingx="80"
       spacingy="80"
       empspacing="1" />
  </sodipodi:namedview>
  <path
     inkscape:connector-curvature="0"
     id="path3394"
     style="font-style:normal;font-weight:normal;font-size:medium;line-height:125%;font-family:sans-serif;letter-spacing:0px;word-spacing:0px;fill:#000000;fill-opacity:1;stroke:none;stroke-width:1px;stroke-linecap:butt;stroke-linejoin:miter;stroke-opacity:1"
     d="m 17.888199,85.031052 13.136646,0 0,-13.136645 -13.136646,0 0,13.136645 z m 16.055901,0 14.596272,0 0,-13.136645 -14.596272,0 0,13.136645 z m -16.055901,-16.0559 13.136646,0 0,-14.596273 -13.136646,0 0,14.596273 z m 16.055901,0 14.596272,0 0,-14.596273 -14.596272,0 0,14.596273 z m -16.055901,-17.515527 13.136646,0 0,-13.136646 -13.136646,0 0,13.136646 z m 33.571428,33.571427 14.596273,0 0,-13.136645 -14.596273,0 0,13.136645 z M 33.9441,51.459625 l 14.596272,0 0,-13.136646 -14.596272,0 0,13.136646 z m 35.031054,33.571427 13.136646,0 0,-13.136645 -13.136646,0 0,13.136645 z m -17.515527,-16.0559 14.596273,0 0,-14.596273 -14.596273,0 0,14.596273 z m -16.0559,-39.409937 0,-13.136645 q 0,-0.592974 -0.456134,-1.003494 -0.41052,-0.456134 -1.003493,-0.456134 l -2.919255,0 q -0.592974,0 -1.049107,0.456134 -0.41052,0.41052 -0.41052,1.003494 l 0,13.136645 q 0,0.592974 0.41052,1.049107 0.456133,0.410521 1.049107,0.410521 l 2.919255,0 q 0.592973,0 1.003493,-0.410521 0.456134,-0.456133 0.456134,-1.049107 z m 33.571427,39.409937 13.136646,0 0,-14.596273 -13.136646,0 0,14.596273 z m -17.515527,-17.515527 14.596273,0 0,-13.136646 -14.596273,0 0,13.136646 z m 17.515527,0 13.136646,0 0,-13.136646 -13.136646,0 0,13.136646 z m 1.459628,-21.89441 0,-13.136645 q 0,-0.592974 -0.456134,-1.003494 -0.41052,-0.456134 -1.003494,-0.456134 l -2.919254,0 q -0.592974,0 -1.049107,0.456134 -0.41052,0.41052 -0.41052,1.003494 l 0,13.136645 q 0,0.592974 0.41052,1.049107 0.456133,0.410521 1.049107,0.410521 l 2.919254,0 q 0.592974,0 1.003494,-0.410521 0.456134,-0.456133 0.456134,-1.049107 z m 17.515527,-2.919254 0,58.385091 q 0,2.371895 -1.733307,4.105202 -1.733308,1.733307 -4.105202,1.733307 l -64.223601,0 q -2.371894,0 -4.105201,-1.733307 -1.733308,-1.733307 -1.733308,-4.105202 l 0,-58.385091 q 0,-2.371895 1.733308,-4.105202 1.733307,-1.733307 4.105201,-1.733307 l 5.83851,0 0,-4.378882 q 0,-3.010482 2.143827,-5.154309 2.143828,-2.1438278 5.154309,-2.1438278 l 2.919255,0 q 3.010481,0 5.154308,2.1438278 2.143828,2.143827 2.143828,5.154309 l 0,4.378882 17.515527,0 0,-4.378882 q 0,-3.010482 2.143828,-5.154309 2.143828,-2.1438278 5.154309,-2.1438278 l 2.919254,0 q 3.010482,0 5.154309,2.1438278 2.143828,2.143827 2.143828,5.154309 l 0,4.378882 5.838509,0 q 2.371894,0 4.105202,1.733307 1.733307,1.733307 1.733307,4.105202 z" />
</svg>
