<svg xmlns:rdf="http://www.w3.org/1999/02/22-rdf-syntax-ns#" xmlns="http://www.w3.org/2000/svg" version="1.1" xmlns:cc="http://creativecommons.org/ns#" xmlns:dc="http://purl.org/dc/elements/1.1/" viewBox="0 0 100 100">
	<path d="m90.228 73.314q0 1.5428-.57142 4.0571-.57142 2.4571-1.2 3.8856-1.2 2.8571-6.9713 6.057-5.3713 2.9142-10.628 2.9142-1.5428 0-3.0285-.17142-1.4857-.22857-3.3142-.74284-1.7714-.51428-2.6857-.79998-.85712-.34285-3.1428-1.2-2.2857-.85712-2.7999-1.0286-5.599-2-9.999-4.743-7.257-4.514-15.086-12.342-7.828-7.829-12.342-15.086-2.743-4.4-4.743-10-.171-.514-1.029-2.8-.857-2.285-1.199-3.142-.286-.915-0.8-2.686-.515-1.829-.7433-3.314-.17142-1.4857-.17142-3.0285 0-5.257 2.9142-10.628 3.1999-5.7713 6.057-6.9713 1.4285-.62856 3.8856-1.2 2.5142-.57142 4.0571-.57142.79998 0 1.2.17142 1.0286.34285 3.0285 4.3428.62856 1.0857 1.7142 3.0857 1.0857 2 2 3.6571.91427 1.6 1.7714 3.0285.17142.22857.97141 1.4285.85712 1.2 1.2571 2.0571.39999.79998.39999 1.6 0 1.1428-1.6571 2.8571-1.6 1.7143-3.5428 3.1428-1.8857 1.4285-3.5428 3.0285-1.6 1.6-1.6 2.6285 0 .51428.28571 1.3143.28571.74284.45713 1.1428.22857.39999.79998 1.3714.62856.97141.6857 1.0857 4.3428 7.8284 9.9427 13.428 5.5999 5.5999 13.428 9.9427.11428.05714 1.0857.6857.97141.57142 1.3714.79998.39999.17142 1.1428.45713.79998.28571 1.3143.28571 1.0286 0 2.6285-1.6 1.6-1.6571 3.0285-3.5428 1.4285-1.9428 3.1428-3.5428 1.7143-1.6571 2.8571-1.6571.79998 0 1.6.39999.85712.39999 2.0571 1.2571 1.2.79998 1.4285.97141 1.4285.85712 3.0285 1.7714 1.6571.91427 3.6571 2t3.0857 1.7142q3.9999 2 4.3428 3.0285.17142.39999.17142 1.2z"/>
</svg>
