<svg xmlns:rdf="http://www.w3.org/1999/02/22-rdf-syntax-ns#" xmlns="http://www.w3.org/2000/svg" version="1.1" xmlns:cc="http://creativecommons.org/ns#" xmlns:dc="http://purl.org/dc/elements/1.1/" viewBox="0 0 100 100">
	<path d="m66.189 46.319q.84271-.84271.84271-1.9959t-.84271-1.9959q-.84271-.84271-1.9959-.84271-7.6287 0-14.104 2.2176-6.4755 2.1733-11.532 5.9433-5.0119 3.7256-10.423 9.7133-.84271.93141-.84271 1.9959 0 1.1532.84271 1.9959.84271.84271 1.9959.84271 1.0645 0 1.9959-.84271 1.1975-1.0645 3.2821-3.1491t2.9716-2.9273q6.0764-5.4998 11.887-7.8061 5.8546-2.3064 13.927-2.3064 1.1532 0 1.9959-.84271zm23.551-10.778q0 4.2135-.88706 8.5601-2.0402 9.9351-8.2053 16.987-6.1207 7.0521-15.834 11.887-9.4915 4.7901-19.427 4.7901-6.5642 0-12.685-2.0846-.66530-.22176-3.9031-1.8628-3.2378-1.6411-4.2579-1.6411-.70965 0-1.7741 1.4193-1.0201 1.4193-1.9959 3.1047-.93141 1.6854-2.3064 3.1047-1.3749 1.4193-2.6612 1.4193-1.9072 0-2.8386-.754-.88706-.79835-1.9959-2.6612-.08871-.17741-.26612-.48788t-.26612-.44353q-.04435-.13306-.13306-.39918-.04435-.31047-.04435-.62094 0-1.5524 1.3749-3.2378 1.3749-1.7298 3.016-2.9273t3.016-2.4838q1.3749-1.2862 1.3749-2.1289 0-.17741-.62094-1.6854t-.70965-1.9515q-.39918-2.262-.39918-4.6127 0-5.1006 1.9072-9.7577 1.9515-4.6571 5.278-8.1609 3.3708-3.5482 7.5844-6.1651 4.2135-2.6612 9.048-4.2579 2.4394-.79835 6.4312-1.1088 3.9918-.35482 7.9392-.39918 3.9918-.08871 7.9392-.26612 3.9474-.22176 7.2295-1.0645 3.3265-.88706 5.0562-2.5281.44353-.44353 1.2862-1.2862.88706-.88706 1.3306-1.2419.44353-.39918 1.1975-.88706.754-.53224 1.5967-.70965.88706-.22176 1.9515-.22176 1.7298 0 3.1047 2.0402 1.4193 2.0402 2.1289 4.9675.70965 2.9273 1.0645 5.4998.35482 2.5725.35482 4.2579z"/>
</svg>
