<svg xmlns:rdf="http://www.w3.org/1999/02/22-rdf-syntax-ns#" xmlns="http://www.w3.org/2000/svg" version="1.1" xmlns:cc="http://creativecommons.org/ns#" xmlns:dc="http://purl.org/dc/elements/1.1/" viewBox="0 0 100 100">
 <path d="m30.939 70.557q1.7753 1.7286 1.7753 4.2047t-1.7753 4.2515q-1.7286 1.7286-4.2047 1.7286-2.4294 0-4.2047-1.7753t-1.7753-4.2047q0-2.4761 1.7286-4.2047 1.7753-1.7753 4.2515-1.7753 2.4761 0 4.2047 1.7753zm23.266 9.6242q1.7753 1.7286 1.7753 4.2047t-1.7753 4.2047q-1.7286 1.7753-4.2047 1.7753t-4.2515-1.7753q-1.7286-1.7286-1.7286-4.2047t1.7286-4.2047q1.7753-1.7753 4.2515-1.7753 2.4761 0 4.2047 1.7753zm-32.891-32.891q1.7753 1.7286 1.7753 4.2047t-1.7753 4.2515q-1.7286 1.7286-4.2047 1.7286t-4.2515-1.7286q-1.7286-1.7753-1.7286-4.2515 0-2.4761 1.7286-4.2047 1.7753-1.7753 4.2515-1.7753 2.4761 0 4.2047 1.7753zm57.932 27.471q0 2.4294-1.7753 4.2047t-4.2047 1.7753q-2.4761 0-4.2515-1.7286-1.7286-1.7753-1.7286-4.2515 0-2.4761 1.7286-4.2047 1.7753-1.7753 4.2515-1.7753 2.4761 0 4.2047 1.7753 1.7753 1.7286 1.7753 4.2047zm-47.233-51.811q2.1958 2.1958 2.1958 5.2793t-2.1958 5.2793-5.2793 2.1958-5.2793-2.1958-2.1958-5.2793 2.1958-5.2793 5.2793-2.1958 5.2793 2.1958zm55.082 24.341q1.7753 1.7286 1.7753 4.2047t-1.7753 4.2515q-1.7286 1.7286-4.2047 1.7286t-4.2515-1.7286q-1.7286-1.7753-1.7286-4.2515 0-2.4761 1.7286-4.2047 1.7753-1.7753 4.2515-1.7753 2.4761 0 4.2047 1.7753zm-30.741-35.04q2.6163 2.6163 2.6163 6.3538t-2.6163 6.3538-6.3538 2.6163-6.3538-2.6163-2.6163-6.3538 2.6163-6.3538 6.3538-2.6163 6.3538 2.6163zm27.377 15.978q0 4.3449-3.0835 7.4284-3.0835 3.0368-7.3817 3.0368-4.3449 0-7.4284-3.0368-3.0368-3.0835-3.0368-7.4284 0-4.2982 3.0368-7.3817 3.0835-3.0835 7.4284-3.0835 4.2982 0 7.3817 3.0835t3.0835 7.3817z"/>
</svg>
