<svg xmlns:rdf="http://www.w3.org/1999/02/22-rdf-syntax-ns#" xmlns="http://www.w3.org/2000/svg" version="1.1" xmlns:cc="http://creativecommons.org/ns#" xmlns:dc="http://purl.org/dc/elements/1.1/" viewBox="0 0 100 100">
	<path d="m70.764 31.278q.85533.95037.33263 2.0908l-25.661 54.978q-.61774 1.188-1.9958 1.188-.19007 0-.66526-.09504-.80782-.23759-1.2355-.90285-.38015-.66526-.19007-1.4256l9.362-38.395-19.293 4.799q-.19007.04752-.57022.04752-.85533 0-1.4731-.52270-.85533-.71278-.61774-1.8532l9.551-39.203q.19007-.66526.76030-1.0929.57022-.42767 1.3305-.42767h15.586q.90285 0 1.5206.61774.61774.57022.61774 1.378 0 .38015-.23759.85533l-8.1257 22.001 18.817-4.6568q.38015-.09504.57022-.09504.90285 0 1.6156.71278z"/>
</svg>
