<svg xmlns:rdf="http://www.w3.org/1999/02/22-rdf-syntax-ns#" xmlns="http://www.w3.org/2000/svg" version="1.1" xmlns:cc="http://creativecommons.org/ns#" xmlns:dc="http://purl.org/dc/elements/1.1/" viewBox="0 0 100 100">
	<path d="m22.863 78.465q.97099-.97099.97099-2.2997t-.97099-2.2997q-.97099-.97099-2.2997-.97099t-2.2997.97099q-.97099.97099-.97099 2.2997t.97099 2.2997q.97099.97099 2.2997.97099t2.2997-.97099zm59.844-31.736q0-2.6063-1.9931-4.5483-1.9931-1.9931-4.5483-1.9931h-17.989q0-2.9641 2.453-8.1256 2.453-5.2127 2.453-8.2278 0-5.0082-1.6353-7.4102-1.6353-2.4019-6.5414-2.4019-1.3287 1.3287-1.942 4.3439-.61326 3.0152-1.5842 6.4392-.91988 3.3729-3.0152 5.5704-1.1243 1.1754-3.935 4.6505-.20442.25552-1.1754 1.5331-.97099 1.2776-1.6353 2.0953-.61326.81767-1.7376 2.1975-1.1243 1.3287-2.0442 2.2486-.91988.86878-1.9931 1.7887-1.0221.91988-2.0442 1.3798-.97099.45994-1.7887.45994h-1.6353v32.707h1.6353q.66436 0 1.5842.15331.97099.15331 1.6864.35773.76657.15331 1.942.56215 1.2265.35773 1.7887.56215.61326.20442 1.8398.66436 1.2265.40884 1.482.51105 10.783 3.7306 17.478 3.7306h6.1836q9.8121 0 9.8121-8.5345 0-1.3287-.25552-2.8619 1.5331-.81767 2.4019-2.6574.91988-1.8909.91988-3.7817 0-1.8909-.91988-3.5262 2.7085-2.5552 2.7085-6.0814 0-1.2776-.51104-2.8107-.51104-1.5842-1.2776-2.453 1.6353-.0511 2.7085-2.4019 1.1243-2.3508 1.1243-4.1395zm6.5414-.0511q0 4.5483-2.5041 8.33.45994 1.6864.45994 3.5262 0 3.935-1.942 7.3591.15331 1.0732.15331 2.1975 0 5.1616-3.0663 9.0966.0511 7.1035-4.3439 11.192-4.395 4.1395-11.601 4.1395h-1.8398-4.7527q-4.906 0-9.7099-1.1754-4.7527-1.1243-11.039-3.3218-5.927-2.043-7.052-2.043h-14.718q-2.7085 0-4.6505-1.8909-1.8909-1.942-1.8909-4.6505v-32.707q0-2.7085 1.8909-4.5994 1.942-1.942 4.6505-1.942h14.003q1.8398-1.2265 7.0013-7.9212 2.9641-3.8328 5.4682-6.5414 1.2265-1.2776 1.7887-4.3439.61326-3.1174 1.5842-6.4903.97099-3.3729 3.1685-5.5193 1.9931-1.8909 4.5994-1.8909 4.2928 0 7.7168 1.6864 3.424 1.6353 5.2127 5.1616 1.7887 3.5262 1.7887 9.5054 0 4.7527-2.453 9.8121h8.9944q5.3149 0 9.1988 3.8839t3.8839 9.1477z"/>
</svg>
